solid 
 facet normal -6.123234e-17 -6.123234e-17 -1.000000e+00
   outer loop
     vertex  5.000000e-01  3.061617e-17 -3.061617e-17
     vertex  4.592425e-17 -7.500000e-01  4.592425e-17
     vertex  0.000000e+00  0.000000e+00  0.000000e+00
   endloop
 endfacet
 facet normal -6.123234e-17 -6.123234e-17 -1.000000e+00
   outer loop
     vertex  5.000000e-01  3.061617e-17 -3.061617e-17
     vertex  5.000000e-01 -7.500000e-01  1.530808e-17
     vertex  4.592425e-17 -7.500000e-01  4.592425e-17
   endloop
 endfacet
 facet normal -1.000000e+00 -6.123234e-17  6.123234e-17
   outer loop
     vertex  0.000000e+00  0.000000e+00  0.000000e+00
     vertex  7.654042e-17 -7.500000e-01  5.000000e-01
     vertex  3.061617e-17  3.061617e-17  5.000000e-01
   endloop
 endfacet
 facet normal -1.000000e+00 -6.123234e-17  6.123234e-17
   outer loop
     vertex  0.000000e+00  0.000000e+00  0.000000e+00
     vertex  4.592425e-17 -7.500000e-01  4.592425e-17
     vertex  7.654042e-17 -7.500000e-01  5.000000e-01
   endloop
 endfacet
 facet normal  1.000000e+00  0.000000e+00  0.000000e+00
   outer loop
     vertex  5.000000e-01  6.123234e-17  5.000000e-01
     vertex  5.000000e-01 -7.500000e-01  1.530808e-17
     vertex  5.000000e-01  3.061617e-17 -3.061617e-17
   endloop
 endfacet
 facet normal  1.000000e+00  0.000000e+00  0.000000e+00
   outer loop
     vertex  5.000000e-01  6.123234e-17  5.000000e-01
     vertex  5.000000e-01 -7.500000e-01  5.000000e-01
     vertex  5.000000e-01 -7.500000e-01  1.530808e-17
   endloop
 endfacet
 facet normal -6.123234e-17  1.000000e+00 -6.123234e-17
   outer loop
     vertex  5.000000e-01  6.123234e-17  5.000000e-01
     vertex  5.000000e-01  3.061617e-17 -3.061617e-17
     vertex  0.000000e+00  0.000000e+00  0.000000e+00
   endloop
 endfacet
 facet normal -6.123234e-17  1.000000e+00 -6.123234e-17
   outer loop
     vertex  5.000000e-01  6.123234e-17  5.000000e-01
     vertex  0.000000e+00  0.000000e+00  0.000000e+00
     vertex  3.061617e-17  3.061617e-17  5.000000e-01
   endloop
 endfacet
 facet normal  0.000000e+00 -1.000000e+00  0.000000e+00
   outer loop
     vertex  5.000000e-01 -7.500000e-01  1.530808e-17
     vertex  4.296875e-01 -7.500000e-01  7.031250e-02
     vertex  7.031250e-02 -7.500000e-01  7.031250e-02
   endloop
 endfacet
 facet normal  0.000000e+00 -1.000000e+00  0.000000e+00
   outer loop
     vertex  5.000000e-01 -7.500000e-01  1.530808e-17
     vertex  7.031250e-02 -7.500000e-01  7.031250e-02
     vertex  4.592425e-17 -7.500000e-01  4.592425e-17
   endloop
 endfacet
 facet normal  0.000000e+00 -1.000000e+00  0.000000e+00
   outer loop
     vertex  7.654042e-17 -7.500000e-01  5.000000e-01
     vertex  7.031250e-02 -7.500000e-01  7.031250e-02
     vertex  7.031250e-02 -7.500000e-01  4.296875e-01
   endloop
 endfacet
 facet normal  0.000000e+00 -1.000000e+00 -0.000000e+00
   outer loop
     vertex  7.654042e-17 -7.500000e-01  5.000000e-01
     vertex  4.592425e-17 -7.500000e-01  4.592425e-17
     vertex  7.031250e-02 -7.500000e-01  7.031250e-02
   endloop
 endfacet
 facet normal  0.000000e+00 -1.000000e+00  1.578984e-15
   outer loop
     vertex  5.000000e-01 -7.500000e-01  5.000000e-01
     vertex  7.031250e-02 -7.500000e-01  4.296875e-01
     vertex  4.296875e-01 -7.500000e-01  4.296875e-01
   endloop
 endfacet
 facet normal  1.578984e-15 -1.000000e+00  0.000000e+00
   outer loop
     vertex  5.000000e-01 -7.500000e-01  5.000000e-01
     vertex  4.296875e-01 -7.500000e-01  4.296875e-01
     vertex  4.296875e-01 -7.500000e-01  7.031250e-02
   endloop
 endfacet
 facet normal  2.220446e-16 -1.000000e+00  2.220446e-16
   outer loop
     vertex  5.000000e-01 -7.500000e-01  5.000000e-01
     vertex  4.296875e-01 -7.500000e-01  7.031250e-02
     vertex  5.000000e-01 -7.500000e-01  1.530808e-17
   endloop
 endfacet
 facet normal  2.220446e-16 -1.000000e+00  2.220446e-16
   outer loop
     vertex  5.000000e-01 -7.500000e-01  5.000000e-01
     vertex  7.654042e-17 -7.500000e-01  5.000000e-01
     vertex  7.031250e-02 -7.500000e-01  4.296875e-01
   endloop
 endfacet
 facet normal  1.110223e-16  7.401487e-17  1.000000e+00
   outer loop
     vertex  3.061617e-17  3.061617e-17  5.000000e-01
     vertex  5.000000e-01 -7.500000e-01  5.000000e-01
     vertex  5.000000e-01  6.123234e-17  5.000000e-01
   endloop
 endfacet
 facet normal  0.000000e+00  0.000000e+00  1.000000e+00
   outer loop
     vertex  3.061617e-17  3.061617e-17  5.000000e-01
     vertex  7.654042e-17 -7.500000e-01  5.000000e-01
     vertex  5.000000e-01 -7.500000e-01  5.000000e-01
   endloop
 endfacet
 facet normal  7.723291e-17  0.000000e+00  1.000000e+00
   outer loop
     vertex  4.296875e-01 -7.500000e-01  7.031250e-02
     vertex  7.031250e-02 -7.265625e-01  7.031250e-02
     vertex  7.031250e-02 -7.500000e-01  7.031250e-02
   endloop
 endfacet
 facet normal  7.723291e-17 -0.000000e+00  1.000000e+00
   outer loop
     vertex  4.296875e-01 -7.500000e-01  7.031250e-02
     vertex  4.296875e-01 -7.265625e-01  7.031250e-02
     vertex  7.031250e-02 -7.265625e-01  7.031250e-02
   endloop
 endfacet
 facet normal -1.000000e+00  0.000000e+00  0.000000e+00
   outer loop
     vertex  4.296875e-01 -7.500000e-01  4.296875e-01
     vertex  4.296875e-01 -7.265625e-01  7.031250e-02
     vertex  4.296875e-01 -7.500000e-01  7.031250e-02
   endloop
 endfacet
 facet normal -1.000000e+00  0.000000e+00  0.000000e+00
   outer loop
     vertex  4.296875e-01 -7.500000e-01  4.296875e-01
     vertex  4.296875e-01 -7.265625e-01  4.296875e-01
     vertex  4.296875e-01 -7.265625e-01  7.031250e-02
   endloop
 endfacet
 facet normal  0.000000e+00  0.000000e+00 -1.000000e+00
   outer loop
     vertex  7.031250e-02 -7.500000e-01  4.296875e-01
     vertex  4.296875e-01 -7.265625e-01  4.296875e-01
     vertex  4.296875e-01 -7.500000e-01  4.296875e-01
   endloop
 endfacet
 facet normal  0.000000e+00  0.000000e+00 -1.000000e+00
   outer loop
     vertex  7.031250e-02 -7.500000e-01  4.296875e-01
     vertex  7.031250e-02 -7.265625e-01  4.296875e-01
     vertex  4.296875e-01 -7.265625e-01  4.296875e-01
   endloop
 endfacet
 facet normal  1.000000e+00  0.000000e+00 -7.723291e-17
   outer loop
     vertex  7.031250e-02 -7.500000e-01  7.031250e-02
     vertex  7.031250e-02 -7.265625e-01  4.296875e-01
     vertex  7.031250e-02 -7.500000e-01  4.296875e-01
   endloop
 endfacet
 facet normal  1.000000e+00  0.000000e+00 -7.723291e-17
   outer loop
     vertex  7.031250e-02 -7.500000e-01  7.031250e-02
     vertex  7.031250e-02 -7.265625e-01  7.031250e-02
     vertex  7.031250e-02 -7.265625e-01  4.296875e-01
   endloop
 endfacet
 facet normal  0.000000e+00 -1.000000e+00 -0.000000e+00
   outer loop
     vertex  4.296875e-01 -7.265625e-01  4.296875e-01
     vertex  7.031250e-02 -7.265625e-01  7.031250e-02
     vertex  4.296875e-01 -7.265625e-01  7.031250e-02
   endloop
 endfacet
 facet normal -0.000000e+00 -1.000000e+00  0.000000e+00
   outer loop
     vertex  4.296875e-01 -7.265625e-01  4.296875e-01
     vertex  7.031250e-02 -7.265625e-01  4.296875e-01
     vertex  7.031250e-02 -7.265625e-01  7.031250e-02
   endloop
 endfacet
endsolid
